<?xml version="1.0" standalone="no"?>
<svg viewBox="0 0 200 200" xmlns="http://www.w3.org/2000/svg">
  <path fill="#000000" d="M21.1,-25C30,-27.1,41.8,-25.8,48,-19.7C54.2,-13.7,54.9,-2.8,48.4,3.3C41.8,9.5,28.2,11.1,22.1,20.5C16,29.9,17.5,47.3,12.9,52.7C8.2,58.1,-2.5,51.6,-16.4,50.1C-30.3,48.6,-47.4,52.2,-52.7,45.8C-58.1,39.4,-51.7,23,-54.6,7.4C-57.6,-8.2,-69.9,-22.8,-70.2,-36.2C-70.6,-49.6,-59,-61.7,-45.3,-57.4C-31.6,-53.2,-15.8,-32.6,-4.9,-25.1C6.1,-17.5,12.1,-22.9,21.1,-25Z" transform="translate(100 100)" />
</svg>
